<mxfile host="app.diagrams.net" modified="2022-10-10T13:06:20.819Z" agent="5.0 (Windows NT 10.0; Win64; x64) AppleWebKit/537.36 (KHTML, like Gecko) Chrome/106.0.0.0 Safari/537.36" etag="NMVk5GDN8wzzd4_2R129" version="20.4.0" type="github">
  <diagram id="prtHgNgQTEPvFCAcTncT" name="Page-1">
    <mxGraphModel dx="1564" dy="2087" grid="1" gridSize="10" guides="1" tooltips="1" connect="1" arrows="1" fold="1" page="1" pageScale="1" pageWidth="827" pageHeight="1169" math="0" shadow="0">
      <root>
        <mxCell id="0" />
        <mxCell id="1" parent="0" />
        <mxCell id="dNxyNK7c78bLwvsdeMH5-19" value="DataLoad()" style="swimlane;html=1;childLayout=stackLayout;resizeParent=1;resizeParentMax=0;horizontal=0;startSize=20;horizontalStack=0;fontFamily=Verdana;" parent="1" vertex="1">
          <mxGeometry x="-250" y="-20" width="2220" height="1070" as="geometry" />
        </mxCell>
        <mxCell id="dNxyNK7c78bLwvsdeMH5-20" value="DataLoad" style="swimlane;html=1;startSize=20;horizontal=0;fontFamily=Verdana;" parent="dNxyNK7c78bLwvsdeMH5-19" vertex="1">
          <mxGeometry x="20" width="2200" height="120" as="geometry" />
        </mxCell>
        <mxCell id="dNxyNK7c78bLwvsdeMH5-24" value="new DocumentModel()" style="rounded=0;whiteSpace=wrap;html=1;fontFamily=Verdana;fontSize=12;fontColor=#000000;align=center;" parent="dNxyNK7c78bLwvsdeMH5-20" vertex="1">
          <mxGeometry x="120" y="45" width="150" height="30" as="geometry" />
        </mxCell>
        <mxCell id="dNxyNK7c78bLwvsdeMH5-32" value="" style="ellipse;whiteSpace=wrap;html=1;fontFamily=Verdana;" parent="dNxyNK7c78bLwvsdeMH5-20" vertex="1">
          <mxGeometry x="890" y="40" width="40" height="40" as="geometry" />
        </mxCell>
        <mxCell id="dNxyNK7c78bLwvsdeMH5-23" value="" style="ellipse;whiteSpace=wrap;html=1;fontFamily=Verdana;" parent="dNxyNK7c78bLwvsdeMH5-20" vertex="1">
          <mxGeometry x="40" y="40" width="40" height="40" as="geometry" />
        </mxCell>
        <mxCell id="dNxyNK7c78bLwvsdeMH5-25" value="" style="edgeStyle=orthogonalEdgeStyle;rounded=0;orthogonalLoop=1;jettySize=auto;html=1;fontFamily=Verdana;" parent="dNxyNK7c78bLwvsdeMH5-20" source="dNxyNK7c78bLwvsdeMH5-23" target="dNxyNK7c78bLwvsdeMH5-24" edge="1">
          <mxGeometry relative="1" as="geometry" />
        </mxCell>
        <mxCell id="_GVcp1NFg4RlwitaNLRl-11" value="new GetDocumentTemplate(unit).Do(_docObject.ResolutionKindId)" style="rounded=0;whiteSpace=wrap;html=1;fontFamily=Verdana;fontSize=12;fontColor=#000000;align=center;" vertex="1" parent="dNxyNK7c78bLwvsdeMH5-20">
          <mxGeometry x="340" y="45" width="390" height="30" as="geometry" />
        </mxCell>
        <mxCell id="dNxyNK7c78bLwvsdeMH5-21" value="&amp;lt;&amp;lt; Common &amp;gt;&amp;gt;" style="swimlane;html=1;startSize=20;horizontal=0;fontFamily=Verdana;" parent="dNxyNK7c78bLwvsdeMH5-19" vertex="1">
          <mxGeometry x="20" y="120" width="2200" height="120" as="geometry" />
        </mxCell>
        <mxCell id="dNxyNK7c78bLwvsdeMH5-26" value="model.IsFinResolution = false;" style="rounded=0;whiteSpace=wrap;html=1;fontFamily=Verdana;fontSize=12;fontColor=#000000;align=center;" parent="dNxyNK7c78bLwvsdeMH5-21" vertex="1">
          <mxGeometry x="107.5" y="20" width="175" height="30" as="geometry" />
        </mxCell>
        <mxCell id="_GVcp1NFg4RlwitaNLRl-16" style="edgeStyle=orthogonalEdgeStyle;rounded=0;orthogonalLoop=1;jettySize=auto;html=1;fontFamily=Verdana;" edge="1" parent="dNxyNK7c78bLwvsdeMH5-21" source="_GVcp1NFg4RlwitaNLRl-13" target="_GVcp1NFg4RlwitaNLRl-15">
          <mxGeometry relative="1" as="geometry" />
        </mxCell>
        <mxCell id="_GVcp1NFg4RlwitaNLRl-13" value="model.IsFinResolution = _docObject.ResolutionTemplate.IsFinal" style="rounded=0;whiteSpace=wrap;html=1;fontFamily=Verdana;fontSize=12;fontColor=#000000;align=center;" vertex="1" parent="dNxyNK7c78bLwvsdeMH5-21">
          <mxGeometry x="700" y="45" width="255" height="30" as="geometry" />
        </mxCell>
        <mxCell id="_GVcp1NFg4RlwitaNLRl-15" value="&lt;div&gt;&amp;nbsp; model.FinResolutionSigned = new CheckFinalResolution(unit).Do(&lt;/div&gt;&lt;div&gt;&amp;nbsp; &amp;nbsp; &amp;nbsp;_docObject.IncomingPackage.Number, _docObject.Id, _docObject.DocumentType.Code&lt;/div&gt;&lt;div style=&quot;&quot;&gt;&amp;nbsp; );&lt;/div&gt;" style="rounded=0;whiteSpace=wrap;html=1;fontFamily=Verdana;fontSize=12;fontColor=#000000;align=left;" vertex="1" parent="dNxyNK7c78bLwvsdeMH5-21">
          <mxGeometry x="1040" y="32.5" width="560" height="55" as="geometry" />
        </mxCell>
        <mxCell id="dNxyNK7c78bLwvsdeMH5-22" value="EEC" style="swimlane;html=1;startSize=20;horizontal=0;fontFamily=Verdana;" parent="dNxyNK7c78bLwvsdeMH5-19" vertex="1">
          <mxGeometry x="20" y="240" width="2200" height="500" as="geometry" />
        </mxCell>
        <mxCell id="_GVcp1NFg4RlwitaNLRl-24" value="TRUE" style="edgeStyle=orthogonalEdgeStyle;rounded=0;orthogonalLoop=1;jettySize=auto;html=1;exitX=1;exitY=0.5;exitDx=0;exitDy=0;entryX=0;entryY=0.5;entryDx=0;entryDy=0;fontFamily=Verdana;" edge="1" parent="dNxyNK7c78bLwvsdeMH5-22" source="dNxyNK7c78bLwvsdeMH5-36" target="_GVcp1NFg4RlwitaNLRl-21">
          <mxGeometry relative="1" as="geometry">
            <mxPoint x="190" y="160" as="targetPoint" />
          </mxGeometry>
        </mxCell>
        <mxCell id="dNxyNK7c78bLwvsdeMH5-36" value="" style="rhombus;whiteSpace=wrap;html=1;fontFamily=Verdana;fontSize=12;fontColor=#000000;align=center;" parent="dNxyNK7c78bLwvsdeMH5-22" vertex="1">
          <mxGeometry x="90" y="40" width="40" height="40" as="geometry" />
        </mxCell>
        <mxCell id="_GVcp1NFg4RlwitaNLRl-17" value="_docObject.DocumentType.Code.IndexOf(&quot;eec&quot;) &amp;gt; 0" style="text;html=1;strokeColor=none;fillColor=none;align=center;verticalAlign=middle;whiteSpace=wrap;rounded=0;fontFamily=Verdana;" vertex="1" parent="dNxyNK7c78bLwvsdeMH5-22">
          <mxGeometry x="120" y="30" width="320" height="30" as="geometry" />
        </mxCell>
        <mxCell id="_GVcp1NFg4RlwitaNLRl-19" value="GetEecRegStatement" style="swimlane;html=1;startSize=20;horizontal=0;fontFamily=Verdana;" vertex="1" parent="dNxyNK7c78bLwvsdeMH5-22">
          <mxGeometry x="20" y="100" width="2180" height="190" as="geometry" />
        </mxCell>
        <mxCell id="_GVcp1NFg4RlwitaNLRl-21" value="eecRegStat = GetEecRegStatement(_docObject.IncomingPackage.DocumentId);" style="rounded=0;whiteSpace=wrap;html=1;fontFamily=Verdana;fontSize=12;fontColor=#000000;align=center;" vertex="1" parent="_GVcp1NFg4RlwitaNLRl-19">
          <mxGeometry x="150" y="65" width="410" height="60" as="geometry" />
        </mxCell>
        <mxCell id="_GVcp1NFg4RlwitaNLRl-25" value="RegistrationResolutionEEC" style="swimlane;html=1;startSize=20;horizontal=0;fontFamily=Verdana;" vertex="1" parent="dNxyNK7c78bLwvsdeMH5-22">
          <mxGeometry x="20" y="290" width="2180" height="210" as="geometry" />
        </mxCell>
        <mxCell id="_GVcp1NFg4RlwitaNLRl-27" value="eecDoc = new RegistrationResolutionEec(_docObject as RegistrationResolution)" style="rounded=0;whiteSpace=wrap;html=1;fontFamily=Verdana;fontSize=12;fontColor=#000000;align=center;" vertex="1" parent="_GVcp1NFg4RlwitaNLRl-25">
          <mxGeometry x="150" y="65" width="410" height="60" as="geometry" />
        </mxCell>
        <mxCell id="_GVcp1NFg4RlwitaNLRl-30" value="&lt;div&gt;&amp;nbsp; model.EecStatementNumber = eecDoc.EECNumber = (eecRegStat == null) ? string.Empty : eecRegStat.EECNumber;&lt;/div&gt;&lt;div&gt;&amp;nbsp; model.EecStatementDate = eecDoc.EECNumberCreated = eecRegStat.EECNumberCreated;&lt;/div&gt;" style="whiteSpace=wrap;html=1;fontFamily=Verdana;fontColor=#000000;rounded=0;align=left;" vertex="1" parent="_GVcp1NFg4RlwitaNLRl-25">
          <mxGeometry x="610" y="65" width="740" height="60" as="geometry" />
        </mxCell>
        <mxCell id="_GVcp1NFg4RlwitaNLRl-31" value="" style="edgeStyle=orthogonalEdgeStyle;rounded=0;orthogonalLoop=1;jettySize=auto;html=1;fontFamily=Verdana;" edge="1" parent="_GVcp1NFg4RlwitaNLRl-25" source="_GVcp1NFg4RlwitaNLRl-27" target="_GVcp1NFg4RlwitaNLRl-30">
          <mxGeometry relative="1" as="geometry" />
        </mxCell>
        <mxCell id="_GVcp1NFg4RlwitaNLRl-32" value="" style="rhombus;whiteSpace=wrap;html=1;fontFamily=Verdana;align=left;fontColor=#000000;rounded=0;" vertex="1" parent="_GVcp1NFg4RlwitaNLRl-25">
          <mxGeometry x="1460" y="55" width="80" height="80" as="geometry" />
        </mxCell>
        <mxCell id="_GVcp1NFg4RlwitaNLRl-33" value="" style="edgeStyle=orthogonalEdgeStyle;rounded=0;orthogonalLoop=1;jettySize=auto;html=1;fontFamily=Verdana;" edge="1" parent="_GVcp1NFg4RlwitaNLRl-25" source="_GVcp1NFg4RlwitaNLRl-30" target="_GVcp1NFg4RlwitaNLRl-32">
          <mxGeometry relative="1" as="geometry" />
        </mxCell>
        <mxCell id="_GVcp1NFg4RlwitaNLRl-34" value="&lt;div&gt;_docObject.RegistrationCertificate == null ||&lt;/div&gt;&lt;div&gt;&amp;nbsp; &amp;nbsp; &amp;nbsp; &amp;nbsp; &amp;nbsp; &amp;nbsp; &amp;nbsp; &amp;nbsp; &amp;nbsp; &amp;nbsp; &amp;nbsp; &amp;nbsp; &amp;nbsp; &amp;nbsp; string.IsNullOrEmpty(_docObject.RegistrationCertificate.&lt;span style=&quot;background-color: initial;&quot;&gt;RegistrationCertificateNumber) ||&lt;/span&gt;&lt;/div&gt;&lt;div&gt;&amp;nbsp; &amp;nbsp; &amp;nbsp; &amp;nbsp; &amp;nbsp; &amp;nbsp; &amp;nbsp; &amp;nbsp; &amp;nbsp; &amp;nbsp; &amp;nbsp; &amp;nbsp; &amp;nbsp; &amp;nbsp; _docObject.RegistrationCertificate.Registered == DateTime.MinValue&lt;/div&gt;" style="text;html=1;align=center;verticalAlign=middle;resizable=0;points=[];autosize=1;strokeColor=none;fillColor=none;fontFamily=Verdana;" vertex="1" parent="_GVcp1NFg4RlwitaNLRl-25">
          <mxGeometry x="1370" y="20" width="690" height="60" as="geometry" />
        </mxCell>
        <mxCell id="_GVcp1NFg4RlwitaNLRl-20" value="" style="edgeStyle=orthogonalEdgeStyle;rounded=0;orthogonalLoop=1;jettySize=auto;html=1;endArrow=classic;endFill=1;fontFamily=Verdana;exitX=1;exitY=0.5;exitDx=0;exitDy=0;entryX=0;entryY=0.5;entryDx=0;entryDy=0;" edge="1" parent="dNxyNK7c78bLwvsdeMH5-22" source="_GVcp1NFg4RlwitaNLRl-21" target="_GVcp1NFg4RlwitaNLRl-28">
          <mxGeometry relative="1" as="geometry">
            <mxPoint x="730" y="195" as="targetPoint" />
          </mxGeometry>
        </mxCell>
        <mxCell id="_GVcp1NFg4RlwitaNLRl-28" value="" style="rhombus;whiteSpace=wrap;html=1;fontFamily=Verdana;fontSize=12;fontColor=#000000;align=center;" vertex="1" parent="dNxyNK7c78bLwvsdeMH5-22">
          <mxGeometry x="630" y="40" width="40" height="40" as="geometry" />
        </mxCell>
        <mxCell id="_GVcp1NFg4RlwitaNLRl-26" value="TRUE" style="edgeStyle=orthogonalEdgeStyle;rounded=0;orthogonalLoop=1;jettySize=auto;html=1;endArrow=classic;endFill=1;fontFamily=Verdana;entryX=0.5;entryY=0;entryDx=0;entryDy=0;exitX=0.5;exitY=1;exitDx=0;exitDy=0;" edge="1" parent="dNxyNK7c78bLwvsdeMH5-22" source="_GVcp1NFg4RlwitaNLRl-28" target="_GVcp1NFg4RlwitaNLRl-27">
          <mxGeometry x="-0.9636" relative="1" as="geometry">
            <mxPoint x="740" y="230" as="sourcePoint" />
            <Array as="points">
              <mxPoint x="650" y="310" />
              <mxPoint x="375" y="310" />
            </Array>
            <mxPoint as="offset" />
          </mxGeometry>
        </mxCell>
        <mxCell id="_GVcp1NFg4RlwitaNLRl-1" value="RegistrationResolutionEEC" style="swimlane;html=1;startSize=20;horizontal=0;fontFamily=Verdana;" vertex="1" parent="dNxyNK7c78bLwvsdeMH5-19">
          <mxGeometry x="20" y="740" width="2200" height="210" as="geometry" />
        </mxCell>
        <mxCell id="_GVcp1NFg4RlwitaNLRl-2" value="" style="edgeStyle=orthogonalEdgeStyle;rounded=0;orthogonalLoop=1;jettySize=auto;html=1;endArrow=classic;endFill=1;fontFamily=Verdana;" edge="1" parent="_GVcp1NFg4RlwitaNLRl-1" source="_GVcp1NFg4RlwitaNLRl-3" target="_GVcp1NFg4RlwitaNLRl-4">
          <mxGeometry relative="1" as="geometry" />
        </mxCell>
        <mxCell id="_GVcp1NFg4RlwitaNLRl-3" value="" style="rounded=0;whiteSpace=wrap;html=1;fontFamily=Verdana;fontSize=12;fontColor=#000000;align=center;" vertex="1" parent="_GVcp1NFg4RlwitaNLRl-1">
          <mxGeometry x="240" y="20" width="80" height="60" as="geometry" />
        </mxCell>
        <mxCell id="_GVcp1NFg4RlwitaNLRl-4" value="" style="rhombus;whiteSpace=wrap;html=1;fontFamily=Verdana;fontSize=12;fontColor=#000000;align=center;" vertex="1" parent="_GVcp1NFg4RlwitaNLRl-1">
          <mxGeometry x="360" y="30" width="40" height="40" as="geometry" />
        </mxCell>
        <mxCell id="_GVcp1NFg4RlwitaNLRl-5" value="Lane 3" style="swimlane;html=1;startSize=20;horizontal=0;fontFamily=Verdana;" vertex="1" parent="dNxyNK7c78bLwvsdeMH5-19">
          <mxGeometry x="20" y="950" width="2200" height="120" as="geometry" />
        </mxCell>
        <mxCell id="_GVcp1NFg4RlwitaNLRl-6" value="" style="edgeStyle=orthogonalEdgeStyle;rounded=0;orthogonalLoop=1;jettySize=auto;html=1;endArrow=classic;endFill=1;fontFamily=Verdana;" edge="1" parent="_GVcp1NFg4RlwitaNLRl-5" source="_GVcp1NFg4RlwitaNLRl-7" target="_GVcp1NFg4RlwitaNLRl-8">
          <mxGeometry relative="1" as="geometry" />
        </mxCell>
        <mxCell id="_GVcp1NFg4RlwitaNLRl-7" value="" style="rounded=0;whiteSpace=wrap;html=1;fontFamily=Verdana;fontSize=12;fontColor=#000000;align=center;" vertex="1" parent="_GVcp1NFg4RlwitaNLRl-5">
          <mxGeometry x="240" y="20" width="80" height="60" as="geometry" />
        </mxCell>
        <mxCell id="_GVcp1NFg4RlwitaNLRl-8" value="" style="rhombus;whiteSpace=wrap;html=1;fontFamily=Verdana;fontSize=12;fontColor=#000000;align=center;" vertex="1" parent="_GVcp1NFg4RlwitaNLRl-5">
          <mxGeometry x="360" y="30" width="40" height="40" as="geometry" />
        </mxCell>
        <mxCell id="_GVcp1NFg4RlwitaNLRl-10" style="edgeStyle=orthogonalEdgeStyle;rounded=0;orthogonalLoop=1;jettySize=auto;html=1;exitX=0.5;exitY=1;exitDx=0;exitDy=0;entryX=0.5;entryY=0;entryDx=0;entryDy=0;fontFamily=Verdana;" edge="1" parent="dNxyNK7c78bLwvsdeMH5-19" source="dNxyNK7c78bLwvsdeMH5-24" target="dNxyNK7c78bLwvsdeMH5-26">
          <mxGeometry relative="1" as="geometry" />
        </mxCell>
        <mxCell id="_GVcp1NFg4RlwitaNLRl-12" style="edgeStyle=orthogonalEdgeStyle;rounded=0;orthogonalLoop=1;jettySize=auto;html=1;entryX=0;entryY=0.5;entryDx=0;entryDy=0;fontFamily=Verdana;" edge="1" parent="dNxyNK7c78bLwvsdeMH5-19" source="dNxyNK7c78bLwvsdeMH5-26" target="_GVcp1NFg4RlwitaNLRl-11">
          <mxGeometry relative="1" as="geometry" />
        </mxCell>
        <mxCell id="_GVcp1NFg4RlwitaNLRl-14" style="edgeStyle=orthogonalEdgeStyle;rounded=0;orthogonalLoop=1;jettySize=auto;html=1;entryX=0.5;entryY=0;entryDx=0;entryDy=0;fontFamily=Verdana;exitX=1;exitY=0.5;exitDx=0;exitDy=0;" edge="1" parent="dNxyNK7c78bLwvsdeMH5-19" source="_GVcp1NFg4RlwitaNLRl-11" target="_GVcp1NFg4RlwitaNLRl-13">
          <mxGeometry relative="1" as="geometry" />
        </mxCell>
        <mxCell id="_GVcp1NFg4RlwitaNLRl-18" style="edgeStyle=orthogonalEdgeStyle;rounded=0;orthogonalLoop=1;jettySize=auto;html=1;entryX=0.5;entryY=0;entryDx=0;entryDy=0;fontFamily=Verdana;exitX=1;exitY=0.5;exitDx=0;exitDy=0;" edge="1" parent="dNxyNK7c78bLwvsdeMH5-19" source="_GVcp1NFg4RlwitaNLRl-15" target="dNxyNK7c78bLwvsdeMH5-36">
          <mxGeometry relative="1" as="geometry">
            <Array as="points">
              <mxPoint x="1640" y="180" />
              <mxPoint x="1640" y="230" />
              <mxPoint x="130" y="230" />
            </Array>
          </mxGeometry>
        </mxCell>
        <mxCell id="_GVcp1NFg4RlwitaNLRl-29" value="_docObject is RegistrationResolution" style="text;html=1;align=center;verticalAlign=middle;resizable=0;points=[];autosize=1;strokeColor=none;fillColor=none;fontFamily=Verdana;" vertex="1" parent="1">
          <mxGeometry x="340" y="235" width="240" height="30" as="geometry" />
        </mxCell>
      </root>
    </mxGraphModel>
  </diagram>
</mxfile>
